<?xml version="1.0" standalone="no"?>
<!DOCTYPE svg PUBLIC "-//W3C//DTD SVG 20010904//EN"
 "http://www.w3.org/TR/2001/REC-SVG-20010904/DTD/svg10.dtd">
<svg version="1.0" xmlns="http://www.w3.org/2000/svg"
 width="700.000000pt" height="700.000000pt" viewBox="0 0 700.000000 700.000000"
 preserveAspectRatio="xMidYMid meet">
<metadata>
Created by potrace 1.14, written by Peter Selinger 2001-2017
</metadata>
<g transform="translate(0.000000,700.000000) scale(0.100000,-0.100000)"
fill="#000000" stroke="none">
<path d="M3265 6844 c-126 -74 -240 -140 -252 -147 -12 -7 -64 -36 -115 -66
-51 -30 -107 -62 -125 -72 -17 -10 -50 -29 -72 -43 -22 -15 -43 -26 -45 -26
-2 0 -40 -21 -83 -46 -43 -26 -94 -56 -113 -66 -33 -19 -257 -149 -290 -168
-79 -47 -153 -90 -155 -90 -2 0 -49 -27 -104 -60 -56 -33 -104 -60 -108 -60
-3 0 -14 -6 -22 -14 -9 -7 -41 -27 -71 -43 -30 -16 -78 -44 -106 -61 -28 -18
-55 -32 -59 -32 -5 0 -16 -6 -24 -14 -9 -8 -38 -26 -66 -41 -107 -57 -165 -91
-177 -103 -7 -7 -15 -12 -20 -12 -4 0 -47 -24 -97 -52 -49 -29 -102 -60 -118
-69 -15 -9 -111 -65 -213 -124 -102 -59 -203 -117 -225 -130 -22 -12 -57 -32
-78 -45 l-37 -22 2 -1746 3 -1746 70 -41 c39 -23 90 -52 115 -65 25 -14 52
-30 60 -36 8 -6 40 -25 70 -41 30 -16 74 -42 97 -56 24 -15 45 -27 48 -27 3 0
31 -16 61 -35 30 -19 56 -35 58 -35 4 0 433 -247 546 -315 30 -18 75 -44 100
-57 53 -30 55 -31 303 -174 34 -20 80 -47 102 -59 22 -13 161 -93 308 -179
148 -86 270 -156 273 -156 2 0 23 -12 47 -27 35 -22 333 -195 457 -265 19 -11
92 -53 161 -94 69 -41 130 -74 136 -74 9 0 136 71 268 151 17 10 46 26 65 37
50 28 742 428 965 558 55 32 114 66 130 75 17 9 98 56 180 104 83 48 165 96
183 106 120 69 180 104 281 162 62 37 116 67 118 67 3 0 17 8 31 19 15 10 47
29 72 43 25 14 63 36 85 48 22 13 80 46 128 74 49 28 96 56 106 61 9 6 105 61
213 123 l195 113 0 1745 1 1744 -57 34 c-53 32 -75 45 -181 104 -25 14 -85 49
-134 79 -49 29 -90 53 -92 53 -3 0 -531 305 -554 320 -8 5 -33 19 -55 31 -22
12 -43 27 -47 33 -4 6 -8 7 -8 3 0 -5 -12 0 -28 10 -46 31 -66 43 -82 50 -8 4
-32 17 -53 31 -22 13 -60 35 -85 49 -37 21 -434 250 -722 417 -25 14 -81 46
-125 71 -44 26 -93 54 -110 64 -16 10 -46 27 -65 38 -58 33 -214 123 -230 133
-45 28 -293 170 -297 170 -2 0 -21 11 -41 25 -20 14 -43 25 -52 24 -8 0 -118
-61 -245 -135z m303 -306 c31 -17 136 -77 232 -133 96 -56 195 -113 220 -127
25 -14 86 -49 135 -78 50 -29 105 -61 123 -72 18 -10 93 -53 165 -95 73 -42
206 -119 297 -171 91 -52 203 -117 250 -145 47 -27 105 -61 129 -75 24 -13
157 -90 295 -170 138 -80 272 -157 297 -171 26 -14 140 -79 253 -145 l206
-119 -2 -1540 -3 -1541 -390 -226 c-214 -124 -651 -377 -970 -562 -319 -185
-596 -345 -615 -356 -19 -11 -160 -92 -314 -181 -153 -88 -299 -172 -325 -187
l-47 -25 -90 52 c-49 28 -102 59 -119 69 -16 9 -399 231 -850 492 -451 261
-994 575 -1207 697 l-388 224 0 1541 0 1541 108 61 c108 62 543 313 594 343
15 9 114 66 220 127 106 62 249 144 318 184 69 40 193 112 275 160 83 48 193
112 245 142 481 280 894 518 897 518 2 0 30 -14 61 -32z"/>
<path d="M3450 6159 c-36 -21 -235 -139 -442 -261 l-378 -223 0 -2185 0 -2185
28 -16 c15 -9 92 -58 170 -109 79 -50 146 -89 150 -86 8 9 10 265 11 1289 l1
897 670 0 670 0 0 220 0 220 -670 0 -670 0 2 872 3 872 60 34 c62 35 94 52
311 171 72 39 141 72 155 73 14 1 59 -21 109 -52 108 -68 520 -312 670 -398
l114 -65 16 23 c8 12 54 83 102 158 69 108 85 139 75 148 -10 10 -411 251
-522 314 -16 9 -147 86 -290 170 -142 84 -264 154 -270 155 -5 2 -39 -14 -75
-36z"/>
<path d="M4763 5382 c-60 -89 -153 -241 -153 -251 0 -6 57 -48 127 -93 70 -46
175 -114 233 -153 l105 -70 2 -320 c1 -176 3 -858 5 -1515 3 -1361 3 -1354 25
-1346 14 6 341 194 352 203 3 2 6 621 9 1376 2 754 5 1373 7 1375 2 2 176
-114 382 -257 57 -39 106 -71 111 -71 5 0 9 96 10 213 l2 212 -201 125 c-110
69 -233 146 -272 171 -69 44 -681 429 -702 441 -5 3 -24 -15 -42 -40z"/>
<path d="M2165 5350 c-66 -39 -127 -74 -135 -80 -8 -5 -36 -22 -62 -36 l-48
-27 -1 -891 0 -891 -44 145 c-24 80 -118 402 -210 715 -92 314 -169 573 -172
577 -5 9 -112 -43 -206 -100 -34 -20 -74 -44 -89 -51 -17 -9 -28 -23 -28 -35
-1 -12 -3 -586 -5 -1277 l-4 -1255 77 -44 c42 -24 110 -63 150 -88 41 -24 76
-41 79 -39 2 3 7 398 10 879 2 480 5 874 6 875 2 2 63 -226 207 -772 66 -250
196 -739 280 -1055 38 -145 75 -268 82 -272 7 -4 69 -39 136 -78 l124 -70 -3
1953 c-2 1073 -5 1960 -7 1970 -2 9 -7 17 -11 17 -3 0 -60 -32 -126 -70z"/>
</g>
</svg>
